<svg width="64" height="64" viewBox="0 0 64 64" fill="none" xmlns="http://www.w3.org/2000/svg">
  <defs>
    <linearGradient id="grad" x1="0%" y1="0%" x2="100%" y2="100%">
      <stop offset="0%" style="stop-color:#0033aa;stop-opacity:1" />
      <stop offset="100%" style="stop-color:#0066ff;stop-opacity:1" />
    </linearGradient>
  </defs>
  <rect width="64" height="64" rx="12" fill="white"/>
  
  <path d="M20 14V50H34C44 50 48 44 48 38C48 33 45 30 40 29C43 27 45 24 45 20C45 14 40 14 32 14H20ZM26 20H32C37 20 39 21 39 25C39 29 37 30 32 30H26V20ZM26 36H34C39 36 42 37 42 42C42 47 39 48 34 48H26V36Z" fill="url(#grad)"/>
  
  <path d="M20 50C15 50 12 45 12 40" stroke="url(#grad)" stroke-width="3" stroke-linecap="round"/>
</svg>