<svg width="24" height="24" viewBox="0 0 24 24" fill="none" xmlns="http://www.w3.org/2000/svg">
<path d="M6 19C5.44772 19 5 18.5523 5 18V6C5 5.44772 5.44772 5 6 5H18C18.5523 5 19 5.44771 19 6V7.25C19 7.8023 19.4477 8.25 20 8.25C20.5523 8.25 21 7.8023 21 7.25V6C21 4.34315 19.6569 3 18 3H6C4.34315 3 3 4.34315 3 6V18C3 19.6569 4.34315 21 6 21H9.71429C10.2666 21 10.7143 20.5523 10.7143 20C10.7143 19.4477 10.2666 19 9.71429 19H6Z" fill="#3D3936"/>
<path d="M17 8C17 8.55228 16.5523 9 16 9H8C7.44772 9 7 8.55229 7 8C7 7.44772 7.44771 7 8 7H16C16.5523 7 17 7.44771 17 8ZM11 13C11.5523 13 12 12.5523 12 12C12 11.4477 11.5523 11 11 11H8C7.44772 11 7 11.4477 7 12C7 12.5523 7.44772 13 8 13H11Z" fill="#3D3936"/>
<path d="M21.2822 8.97461C21.8092 8.97919 22.3139 9.19085 22.6865 9.56348C23.0592 9.93611 23.2708 10.4408 23.2754 10.9678C23.2798 11.4945 23.0769 12.0019 22.7109 12.3809L15.5967 19.498C15.5293 19.5657 15.4487 19.6181 15.3604 19.6523L15.2695 19.6807L12.8154 20.2598C12.7635 20.2722 12.7096 20.2778 12.6562 20.2764C12.5535 20.2746 12.4524 20.2507 12.3604 20.2051C12.2682 20.1594 12.1877 20.0934 12.124 20.0127C12.0603 19.9319 12.015 19.8376 11.9922 19.7373C11.9694 19.6371 11.9688 19.5329 11.9912 19.4326H11.9922L12.5723 16.9795C12.6017 16.856 12.6651 16.7431 12.7549 16.6533L19.8691 9.53906L20.0166 9.40918C20.3748 9.12531 20.8213 8.97071 21.2822 8.97461ZM21.2734 10.373C21.1169 10.3644 20.9616 10.4124 20.8389 10.5098L17.3477 14.001L13.8604 17.4854L13.5352 19.0762L14.7588 18.3887L21.7393 11.4102C21.8366 11.2874 21.8856 11.1331 21.877 10.9766C21.8681 10.8193 21.8018 10.6709 21.6904 10.5596C21.5791 10.4482 21.4307 10.3819 21.2734 10.373Z" fill="#3D3936" stroke="#3D3936" stroke-width="0.05"/>
</svg>
