<svg width="20" height="20" viewBox="0 0 20 20" fill="none" xmlns="http://www.w3.org/2000/svg">
<path d="M15 14.9306C15 15.9926 12.5 16.6667 10 16.6667C7.08333 16.6667 5 15.9926 5 14.9306C5 13.3814 7.5 12.5 10 12.5C12.5 12.5 15 13.5417 15 14.9306Z" stroke="white" stroke-width="1.5" stroke-linecap="round" stroke-linejoin="round"/>
<path d="M10.0001 10C11.841 10 13.3334 8.50763 13.3334 6.66668C13.3334 4.82573 11.841 3.33334 10.0001 3.33334C8.15913 3.33334 6.66675 4.82573 6.66675 6.66668C6.66675 8.50763 8.15913 10 10.0001 10Z" stroke="white" stroke-width="1.5" stroke-linecap="round" stroke-linejoin="round"/>
<path d="M17.0833 14.445C17.9541 14.1981 18.3333 13.7892 18.3333 13.2673C18.3333 12.259 16.8842 11.4712 15 11.2896" stroke="white" stroke-width="1.5" stroke-linecap="round" stroke-linejoin="round"/>
<path d="M15 9.16667C16.1506 9.16667 17.0833 8.23393 17.0833 7.08333C17.0833 5.93274 16.1506 5 15 5" stroke="white" stroke-width="1.5" stroke-linecap="round" stroke-linejoin="round"/>
<path d="M2.91667 14.445C2.04592 14.1981 1.66667 13.7892 1.66667 13.2673C1.66667 12.259 3.1158 11.4712 5 11.2896" stroke="white" stroke-width="1.5" stroke-linecap="round" stroke-linejoin="round"/>
<path d="M5 9.16667C3.84941 9.16667 2.91667 8.23393 2.91667 7.08333C2.91667 5.93274 3.84941 5 5 5" stroke="white" stroke-width="1.5" stroke-linecap="round" stroke-linejoin="round"/>
</svg>
