<svg width="44" height="44" viewBox="0 0 44 44" fill="none" xmlns="http://www.w3.org/2000/svg">
<path d="M19.7225 0C20.8554 0 21.9882 0 23.1554 0C23.6727 1.37936 23.6727 1.37936 23.8551 1.97769C23.9114 2.15893 23.9114 2.15893 23.9688 2.34384C24.051 2.68667 24.051 2.68667 24.051 3.2837C24.3338 3.33423 24.6168 3.38379 24.8999 3.43296C25.0575 3.46067 25.2151 3.48838 25.3774 3.51692C25.6074 3.54925 25.6074 3.54925 25.8421 3.58222C25.9672 3.60473 26.0922 3.62725 26.2211 3.65044C26.8122 3.54066 27.0849 3.09116 27.4373 2.64002C27.5098 2.55123 27.5822 2.46243 27.6568 2.37095C27.9663 1.98889 28.256 1.6033 28.5288 1.19407C29.7072 1.49128 30.7411 1.9686 31.8125 2.53741C31.7948 2.63515 31.7772 2.73289 31.759 2.83359C31.3632 4.71339 31.3632 4.71339 31.8282 6.4747C32.2786 6.8145 32.6067 7.03067 33.1558 7.16445C34.0023 6.97907 34.7682 6.52553 35.5405 6.1412C35.9917 5.97037 35.9917 5.97037 36.3287 6.00011C36.7533 6.19525 37.0261 6.52656 37.3351 6.86593C37.4401 6.97213 37.5452 7.07834 37.6534 7.18777C37.8191 7.36093 37.8191 7.36093 37.9881 7.53759C38.0939 7.64688 38.1997 7.75617 38.3088 7.86876C38.5291 8.20926 38.5291 8.20926 38.5321 8.55442C38.2806 9.21738 37.8771 9.7847 37.4805 10.3694C37.1148 10.9189 37.1148 10.9189 37.0989 11.5536C37.1769 11.6814 37.2548 11.8091 37.3351 11.9407C37.5814 12.384 37.8276 12.8273 38.0814 13.2841C39.2142 13.2841 40.3471 13.2841 41.5143 13.2841C42.0315 14.8356 42.0315 14.8356 42.5591 16.4185C42.0013 16.9763 41.6989 17.2416 41.0495 17.5946C40.5763 17.8622 40.2501 18.1061 39.8725 18.5082C39.7369 19.3632 39.8542 19.8615 40.0217 20.747C41.0069 21.1411 41.992 21.5351 43.0069 21.9411C43.03 23.2203 43.0256 24.2892 42.7084 25.5233C42.2732 25.6236 41.8379 25.723 41.4024 25.8219C41.2792 25.8503 41.1561 25.8788 41.0292 25.9081C40.9099 25.9351 40.7907 25.962 40.6678 25.9898C40.5583 26.0148 40.4489 26.0398 40.3361 26.0656C40.0217 26.1204 40.0217 26.1204 39.4247 26.1204C39.3531 26.3816 39.2816 26.6428 39.2101 26.904C39.1703 27.0494 39.1305 27.1949 39.0895 27.3448C39.0338 27.5514 39.0338 27.5514 38.9769 27.7622C38.914 27.914 38.914 27.914 38.8498 28.0689C38.7943 28.3912 38.7943 28.3912 39.0755 28.7126C39.253 28.8979 39.253 28.8979 39.434 29.0869C39.6187 29.282 39.6187 29.282 39.8072 29.481C39.9272 29.6034 40.0473 29.7258 40.171 29.8519C40.2664 29.9496 40.3619 30.0473 40.4602 30.148C40.6602 30.35 40.863 30.5491 41.0666 30.7474C40.8474 31.5205 40.4971 32.1421 40.0777 32.8184C39.9836 32.9725 39.9836 32.9725 39.8876 33.1297C39.7341 33.3809 39.5795 33.6315 39.4247 33.8819C39.3427 33.8638 39.2607 33.8457 39.1762 33.8271C38.8021 33.745 38.4278 33.6642 38.0534 33.5833C37.9244 33.5549 37.7954 33.5264 37.6625 33.497C37.5369 33.4701 37.4114 33.4432 37.282 33.4154C37.1097 33.3779 37.1097 33.3779 36.9338 33.3396C36.5602 33.2803 36.2201 33.2597 35.8425 33.2848C35.5331 33.5195 35.5331 33.5195 35.2828 33.8445C35.1943 33.9484 35.1057 34.0523 35.0146 34.1594C34.7916 34.4878 34.7092 34.6874 34.6484 35.0759C34.7099 35.3734 34.7099 35.3734 34.835 35.6683C34.8973 35.8331 34.8973 35.8331 34.9609 36.0012C35.0056 36.1145 35.0502 36.2279 35.0962 36.3446C35.1848 36.5695 35.2719 36.7949 35.3574 37.021C35.4163 37.17 35.4163 37.17 35.4763 37.3221C35.5583 37.6751 35.5219 37.873 35.3947 38.2104C34.9341 38.6545 34.4148 39.0226 33.9021 39.4045C33.8124 39.4772 33.7228 39.5499 33.6304 39.6248C33.4077 39.7963 33.4077 39.7963 33.0066 40.0015C32.277 39.8159 31.7415 39.3281 31.1688 38.8634C31.0725 38.7864 30.9762 38.7095 30.877 38.6302C30.6409 38.4413 30.4057 38.2513 30.1706 38.0611C30.0465 38.115 29.9224 38.1689 29.7946 38.2244C29.5513 38.3283 29.5513 38.3283 29.3031 38.4343C29.142 38.5035 28.981 38.5728 28.8151 38.6442C28.3795 38.8074 28.3795 38.8074 27.9317 38.8074C27.9335 38.9177 27.9352 39.0279 27.937 39.1415C27.9463 40.1843 27.8967 41.204 27.7825 42.2404C25.0645 43.2252 25.0645 43.2252 24.2003 42.8374C24.011 42.5277 23.8708 42.2085 23.725 41.8762C23.2737 40.7651 23.2737 40.7651 22.4059 40.0095C21.7053 39.8595 21.0252 39.9087 20.3195 40.0015C20.283 40.1266 20.2464 40.2516 20.2087 40.3805C19.9969 40.9634 19.7197 41.4657 19.4053 41.9978C19.3497 42.0935 19.2941 42.1891 19.2368 42.2876C19.1009 42.5211 18.964 42.7539 18.8269 42.9867C17.6473 42.9095 16.5418 42.6705 15.394 42.3896C15.2462 40.6164 15.2462 40.6164 15.0954 38.8074C14.8492 38.7582 14.6029 38.7089 14.3491 38.6582C14.1768 38.5781 14.0044 38.4981 13.8267 38.4156C13.258 38.1922 13.1208 38.1751 12.558 38.3596C12.1307 38.6561 12.1307 38.6561 11.7185 39.022C10.5636 40.0075 10.5636 40.0075 10.1932 39.984C9.59758 39.7401 9.12651 39.2969 8.62598 38.8995C8.26466 38.6257 8.26466 38.6257 7.93639 38.6846C7.55777 38.8376 7.40532 39.0192 7.14972 39.3362C6.58664 40.0097 5.98046 40.6256 5.35627 41.2422C5.19812 41.3994 5.19812 41.3994 5.03677 41.5597C4.84235 41.7528 4.64778 41.9458 4.45299 42.1385C4.28697 42.303 4.12366 42.4703 3.96353 42.6405C3.75174 42.8374 3.75174 42.8374 3.4159 42.9307C2.75052 42.7795 2.40858 42.283 1.96063 41.7926C1.84057 41.6879 1.7205 41.5833 1.59681 41.4754C1.36359 41.1956 1.36359 41.1956 1.31578 40.8457C1.37753 40.3336 1.5411 40.1681 1.89532 39.7963C2.01673 39.6677 2.13814 39.5392 2.26323 39.4068C2.88368 38.7732 3.51261 38.1479 4.14252 37.5238C4.69904 36.971 5.2317 36.4099 5.73758 35.81C6.28783 35.1875 6.89063 34.613 7.48322 34.0311C7.38471 33.7848 7.2862 33.5386 7.1847 33.2848C6.02528 33.4031 4.89164 33.6459 3.75174 33.8819C2.06582 31.5708 2.06582 31.5708 2.14545 30.892C2.27265 30.5632 2.41511 30.383 2.66028 30.1311C2.73993 30.0475 2.81959 29.9639 2.90166 29.8778C2.98516 29.7923 3.06867 29.7068 3.1547 29.6186C3.32015 29.448 3.48499 29.2768 3.64912 29.105C3.72243 29.0298 3.79573 28.9547 3.87126 28.8773C4.08505 28.6416 4.08505 28.6416 4.19951 28.21C4.0861 27.728 4.0861 27.728 3.91032 27.2118C3.80874 26.9009 3.70715 26.59 3.60248 26.2696C2.51886 26.0726 1.43523 25.8756 0.318774 25.6726C0.104454 24.7082 -0.0154246 24.0706 0.00159779 23.1259C0.00429145 22.9302 0.00698512 22.7345 0.00976041 22.5329C0.0132237 22.3869 0.016687 22.2408 0.0202552 22.0904C0.486325 21.8905 0.95289 21.6918 1.41956 21.4933C1.55232 21.4364 1.68508 21.3794 1.82186 21.3208C2.01234 21.2399 2.01234 21.2399 2.20667 21.1575C2.32392 21.1075 2.44116 21.0575 2.56196 21.0059C2.85618 20.8963 2.85618 20.8963 3.1547 20.8963C3.31891 20.0976 3.46475 19.2859 3.1547 18.5082C2.42799 17.7119 1.41756 17.2042 0.468033 16.717C0.739657 15.5379 1.08023 14.4137 1.51285 13.2841C1.61137 13.2935 1.70989 13.3028 1.8114 13.3125C3.56143 13.5256 3.56143 13.5256 5.22538 13.1347C5.7328 12.6769 5.91757 12.1566 5.99063 11.493C5.8194 10.8464 5.49527 10.3806 5.09507 9.85111C4.94336 9.63201 4.79379 9.4114 4.64729 9.18877C4.58264 9.09969 4.518 9.01061 4.45139 8.91883C4.34877 8.65704 4.34877 8.65704 4.43798 8.37718C4.70502 7.97253 5.00028 7.6031 5.30963 7.22975C5.48481 7.01704 5.48481 7.01704 5.66354 6.80004C5.77148 6.67402 5.87942 6.54799 5.99063 6.41815C6.06316 6.32445 6.1357 6.23075 6.21043 6.13421C6.4384 5.97037 6.4384 5.97037 6.76957 5.9832C7.41053 6.19385 8.00117 6.50351 8.59858 6.81345C9.02292 7.02262 9.3428 7.16836 9.82064 7.14521C10.5294 6.88134 11.0856 6.61567 11.5132 5.97037C11.5389 5.24043 11.4161 4.58595 11.2643 3.87549C11.1881 3.42502 11.1999 2.99333 11.2147 2.53741C11.6213 2.3366 12.0286 2.13793 12.4368 1.94037C12.5515 1.88342 12.6663 1.82647 12.7845 1.76779C13.9809 1.19274 13.9809 1.19274 14.4984 1.34333C14.8489 1.65214 15.1326 2.00394 15.4219 2.36949C15.5795 2.56193 15.7371 2.75434 15.8948 2.9467C15.9635 3.03269 16.0322 3.11867 16.1031 3.20725C16.2998 3.45271 16.2998 3.45271 16.588 3.73148C17.0925 3.66766 17.0925 3.66766 17.6515 3.52625C18.1595 3.40619 18.1595 3.40619 18.6777 3.2837C19.0225 2.20008 19.3672 1.11646 19.7225 0Z" fill="#3D3936"/>
<path d="M28.4774 13.1546C30.365 14.7863 31.9803 17.1641 32.2602 19.7022C32.4651 22.8446 32.0964 25.6701 30.0149 28.1779C29.9185 28.287 29.8221 28.3961 29.7228 28.5085C29.6156 28.6314 29.5084 28.7544 29.398 28.881C27.6168 30.7963 25.0047 32.0287 22.3793 32.1408C19.3857 32.19 16.9796 31.5138 14.6476 29.5533C14.5256 29.4613 14.4036 29.3693 14.2779 29.2746C12.3694 27.6615 11.2435 24.972 10.9161 22.5381C10.7138 19.5474 11.4827 16.8127 13.4617 14.5026C13.5575 14.396 13.6533 14.2894 13.752 14.1796C13.8294 14.0884 13.9067 13.9972 13.9864 13.9032C17.7259 9.78788 24.3023 9.80224 28.4774 13.1546Z" fill="white"/>
<path d="M29.4525 11.4744C29.694 11.6771 29.9336 11.8823 30.1708 12.0901C30.2718 12.1768 30.3728 12.2636 30.4769 12.353C32.604 14.3181 34.036 17.2683 34.2008 20.1501C34.3252 23.9083 33.4358 27.1205 30.9171 30.0012C30.8378 30.0929 30.7585 30.1847 30.6768 30.2793C29.0253 32.0575 26.8021 33.1033 24.4989 33.7327C24.3123 33.7867 24.1256 33.8408 23.9334 33.8965C23.2383 34.0674 22.5625 34.0766 21.8496 34.0685C21.6516 34.0666 21.6516 34.0666 21.4497 34.0648C18.9749 34.0226 15.8768 33.3198 14.0508 31.4938C13.6468 31.5198 13.4845 31.6133 13.1925 31.8949C12.9668 32.2367 12.9668 32.2367 13.0433 32.6598C12.9941 33.2872 12.7489 33.4624 12.2917 33.8668C11.9975 34.1459 11.7395 34.4312 11.4755 34.7384C10.9274 35.372 10.3401 35.9558 9.7409 36.5406C9.08824 37.1844 8.45594 37.8201 7.89382 38.5463C6.88633 39.8343 5.66701 40.9464 4.5032 42.0909C4.31778 42.2734 4.13475 42.4585 3.95616 42.6477C3.75188 42.8375 3.75188 42.8375 3.41604 42.9308C2.75066 42.7795 2.40871 42.2831 1.96076 41.7927C1.8407 41.688 1.72064 41.5833 1.59695 41.4755C1.36373 41.1956 1.36373 41.1956 1.31592 40.8458C1.37767 40.3337 1.54124 40.1681 1.89546 39.7963C2.01687 39.6678 2.13828 39.5393 2.26336 39.4068C2.87783 38.7794 3.49899 38.1582 4.12593 37.5432C4.57997 37.0957 5.01745 36.6427 5.43268 36.1588C6.26863 35.1983 7.16599 34.298 8.06104 33.393C8.28038 33.1704 8.49877 32.9469 8.71624 32.7225C9.03253 32.3963 9.35164 32.073 9.67152 31.7503C9.7681 31.6496 9.86467 31.5488 9.96417 31.4451C10.6544 30.7579 10.6544 30.7579 11.2652 30.7011C11.4619 30.7241 11.4619 30.7241 11.6626 30.7475C11.97 30.5035 11.97 30.5035 12.1104 30.1504C12.0477 29.5863 11.7535 29.2458 11.4107 28.8071C9.20061 25.8299 8.78719 22.49 9.16522 18.8715C9.27159 18.219 9.46984 17.6248 9.72225 17.0156C9.76152 16.9207 9.80079 16.8257 9.84126 16.7279C11.285 13.3386 13.8177 10.9818 17.1759 9.506C21.3136 7.98973 25.9881 8.77873 29.4525 11.4744ZM14.3493 13.5826C14.2546 13.6652 14.16 13.7477 14.0624 13.8328C13.3006 14.539 12.7787 15.3756 12.2597 16.2693C12.1555 16.4442 12.1555 16.4442 12.0492 16.6226C10.7855 18.9181 10.5726 21.5655 11.2497 24.0711C11.73 25.7211 12.388 27.0118 13.4537 28.3593C13.62 28.5902 13.62 28.5902 13.7896 28.8258C15.7006 30.8236 18.3073 32.0723 21.0683 32.1614C24.0529 32.1895 26.765 31.4119 28.9458 29.2963C29.1089 29.128 29.1089 29.128 29.2752 28.9564C29.3824 28.8488 29.4895 28.7412 29.6 28.6304C31.894 26.2068 32.3605 23.3113 32.2788 20.1162C32.1629 17.5058 30.5546 15.0817 28.7155 13.3308C27.0947 11.932 24.8944 10.8074 22.7078 10.7467C22.5368 10.7375 22.3657 10.7283 22.1895 10.7187C19.2168 10.6029 16.5726 11.5792 14.3493 13.5826Z" fill="white"/>
<path d="M23.7526 14.0303C23.2768 14.3475 22.9667 14.4038 22.4093 14.4781C22.4831 15.0692 22.4831 15.0692 22.5585 15.6722C23.0511 15.5737 23.5436 15.4752 24.0511 15.3737C24.0511 17.1961 24.0511 19.0186 24.0511 20.8963C24.5929 20.8963 25.1347 20.8963 25.693 20.8963C25.693 18.9753 25.693 17.0543 25.693 15.0751C27.2582 15.7013 28.0696 16.9736 28.7714 18.4346C29.5085 20.3066 29.555 22.4315 28.8781 24.3321C28.4381 25.3109 27.9431 26.2581 27.0363 26.8666C27.0279 26.5777 27.0279 26.5777 27.0194 26.283C27.0096 26.0267 26.9997 25.7703 26.9896 25.514C26.9863 25.3875 26.9829 25.261 26.9794 25.1306C26.9354 24.0948 26.7643 23.3597 26.0661 22.5568C25.4575 22.0395 24.904 22.0373 24.1362 22.0507C23.5337 22.113 23.1501 22.2755 22.7078 22.6874C22.1062 23.6366 22.0178 24.5635 22.0361 25.6632C22.0338 25.8013 22.0315 25.9393 22.0291 26.0816C22.0355 27.217 22.3539 28.0992 22.857 29.1055C22.4466 29.1096 22.0361 29.1125 21.6256 29.1148C21.5096 29.1161 21.3936 29.1173 21.2741 29.1186C21.1052 29.1194 21.1052 29.1194 20.933 29.1201C20.7782 29.1213 20.7782 29.1213 20.6203 29.1225C20.3196 29.1055 20.3196 29.1055 19.7226 28.9563C19.7226 26.6905 19.7226 24.4247 19.7226 22.0903C18.6882 22.4351 17.6539 22.7799 16.5881 23.1351C16.5389 23.5292 16.4896 23.9232 16.4389 24.3292C16.9807 24.1815 17.5225 24.0337 18.0807 23.8814C18.0807 25.3099 18.0807 26.7383 18.0807 28.21C16.605 27.6197 15.3785 26.3244 14.6851 24.8983C13.8207 22.8385 13.6466 20.9286 14.3493 18.8066C14.721 17.8996 15.1671 17.1307 15.8418 16.4185C15.8911 16.4185 15.9404 16.4185 15.9911 16.4185C15.9969 16.6323 15.9969 16.6323 16.0028 16.8505C16.0877 18.9399 16.0877 18.9399 17.1199 20.7004C18.0226 21.045 18.8893 21.0339 19.7972 20.7097C20.476 20.2345 20.7085 19.7498 20.9167 18.9559C20.9676 18.3647 20.9719 17.7765 20.9726 17.1834C20.9781 16.9482 20.9781 16.9482 20.9837 16.7083C20.9875 15.6902 20.8478 15.0518 20.3196 14.1796C20.2457 14.0318 20.2457 14.0318 20.1704 13.8811C21.3254 13.4961 22.6027 13.7237 23.7526 14.0303Z" fill="#3D3936"/>
<path d="M28.4774 13.1546C30.365 14.7863 31.9803 17.1641 32.2602 19.7022C32.4651 22.8446 32.0964 25.6701 30.0149 28.1779C29.9185 28.287 29.8221 28.3961 29.7228 28.5085C29.6156 28.6314 29.5084 28.7544 29.398 28.881C27.6168 30.7963 25.0047 32.0287 22.3793 32.1408C19.3857 32.19 16.9796 31.5138 14.6476 29.5533C14.5256 29.4613 14.4036 29.3693 14.2779 29.2746C12.3694 27.6615 11.2435 24.972 10.9161 22.5381C10.7138 19.5474 11.4827 16.8127 13.4617 14.5026C13.5575 14.396 13.6533 14.2894 13.752 14.1796C13.8294 14.0884 13.9067 13.9972 13.9864 13.9032C17.7259 9.78788 24.3023 9.80224 28.4774 13.1546ZM15.2446 14.3288C15.1436 14.4141 15.0426 14.4993 14.9385 14.5871C13.3287 16.0532 12.1911 18.4201 12.0798 20.5931C12.0288 23.5001 12.7307 26.0601 14.7968 28.2099C16.8282 30.1378 19.2705 31.1179 22.0668 31.0762C24.5543 30.9228 26.92 29.8301 28.6779 28.0607C30.4695 25.9613 31.3553 23.4885 31.2719 20.7388C31.0028 17.9368 29.6839 15.6466 27.5521 13.8618C23.785 11.0889 18.7634 11.2457 15.2446 14.3288Z" fill="#3D3936"/>
<path d="M25.0959 23.2844C25.7126 23.9731 25.6045 24.8029 25.5903 25.6725C25.5908 25.8195 25.5913 25.9665 25.5918 26.118C25.5864 26.837 25.5765 27.4072 25.2452 28.0607C24.7974 28.3592 24.7974 28.3592 24.3496 28.3592C23.9018 28.2099 23.9018 28.2099 23.6534 27.856C23.3806 27.1149 23.3888 26.4464 23.3981 25.6632C23.3963 25.5169 23.3946 25.3706 23.3928 25.2198C23.3983 23.8751 23.3983 23.8751 23.9018 23.2844C24.349 23.0608 24.623 23.1493 25.0959 23.2844Z" fill="#3D3936"/>
<path d="M18.0809 14.6275C18.5847 14.6462 18.5847 14.6462 19.1257 14.7768C19.7431 15.455 19.6397 16.2931 19.6295 17.1556C19.6312 17.3013 19.6329 17.4471 19.6347 17.5972C19.6314 18.4007 19.6034 19.0217 19.1257 19.7023C18.6779 19.8516 18.6779 19.8516 18.2302 19.8516C17.669 19.4774 17.6382 19.3068 17.4839 18.6575C17.4395 18.1592 17.4354 17.6649 17.4372 17.1649C17.4348 17.0341 17.4324 16.9032 17.4299 16.7684C17.4293 15.9896 17.5032 15.4536 17.9316 14.7768C17.9809 14.7275 18.0302 14.6783 18.0809 14.6275Z" fill="#3D3936"/>
</svg>
