<svg width="44" height="44" viewBox="0 0 44 44" fill="none" xmlns="http://www.w3.org/2000/svg">
<path d="M19.824 0C20.9627 0 22.1014 0 23.2747 0C23.7946 1.38646 23.7946 1.38646 23.9779 1.98787C24.0345 2.17005 24.0345 2.17005 24.0922 2.3559C24.1748 2.7005 24.1748 2.7005 24.1748 3.30061C24.4591 3.35139 24.7436 3.40121 25.0281 3.45064C25.1865 3.47849 25.3449 3.50634 25.5081 3.53503C25.7393 3.56752 25.7393 3.56752 25.9752 3.60067C26.1009 3.62329 26.2266 3.64592 26.3561 3.66923C26.9503 3.55889 27.2244 3.10707 27.5786 2.65362C27.6514 2.56436 27.7242 2.47511 27.7992 2.38316C28.1103 1.99913 28.4014 1.61156 28.6757 1.20022C29.8601 1.49896 30.8994 1.97874 31.9763 2.55047C31.9585 2.64872 31.9408 2.74696 31.9225 2.84818C31.5246 4.73766 31.5246 4.73766 31.9921 6.50804C32.4448 6.84958 32.7746 7.06687 33.3265 7.20133C34.1773 7.015 34.9472 6.55913 35.7234 6.17282C36.177 6.00111 36.177 6.00111 36.5158 6.031C36.9425 6.22714 37.2168 6.56016 37.5273 6.90128C37.6329 7.00803 37.7385 7.11478 37.8473 7.22477C38.0138 7.39883 38.0138 7.39883 38.1837 7.5764C38.29 7.68625 38.3964 7.7961 38.506 7.90927C38.7275 8.25152 38.7275 8.25152 38.7304 8.59846C38.4777 9.26483 38.0721 9.83507 37.6735 10.4228C37.3059 10.9751 37.3059 10.9751 37.2899 11.6131C37.3683 11.7415 37.4466 11.8699 37.5273 12.0022C37.7748 12.4478 38.0224 12.8934 38.2774 13.3525C39.4161 13.3525 40.5549 13.3525 41.7281 13.3525C42.2479 14.912 42.2479 14.912 42.7783 16.503C42.2176 17.0637 41.9136 17.3304 41.2608 17.6851C40.7852 17.9542 40.4573 18.1993 40.0778 18.6034C39.9415 19.4629 40.0594 19.9637 40.2278 20.8539C41.218 21.2499 42.2082 21.646 43.2283 22.0541C43.2515 23.3398 43.2471 24.4143 42.9283 25.6547C42.4909 25.7555 42.0533 25.8554 41.6155 25.9548C41.4918 25.9834 41.368 26.012 41.2405 26.0415C41.1206 26.0686 41.0007 26.0957 40.8771 26.1236C40.7671 26.1487 40.6571 26.1739 40.5438 26.1998C40.2278 26.2549 40.2278 26.2549 39.6277 26.2549C39.5557 26.5174 39.4838 26.7799 39.412 27.0425C39.372 27.1887 39.3319 27.3349 39.2907 27.4855C39.2347 27.6933 39.2347 27.6933 39.1776 27.9052C39.1144 28.0577 39.1144 28.0577 39.0498 28.2134C38.9941 28.5374 38.9941 28.5374 39.2766 28.8604C39.455 29.0467 39.455 29.0467 39.6371 29.2367C39.8227 29.4328 39.8227 29.4328 40.0121 29.6328C40.1328 29.7558 40.2535 29.8788 40.3778 30.0055C40.4737 30.1038 40.5697 30.202 40.6685 30.3033C40.8695 30.5062 41.0734 30.7064 41.278 30.9057C41.0577 31.6828 40.7056 32.3075 40.2841 32.9873C40.1895 33.1423 40.1895 33.1423 40.093 33.3003C39.9387 33.5528 39.7833 33.8046 39.6277 34.0563C39.5453 34.0381 39.4628 34.0199 39.3779 34.0012C39.0019 33.9187 38.6256 33.8375 38.2493 33.7562C38.1196 33.7276 37.99 33.699 37.8564 33.6695C37.7302 33.6424 37.604 33.6154 37.474 33.5875C37.3007 33.5497 37.3007 33.5497 37.124 33.5113C36.7485 33.4516 36.4065 33.4309 36.027 33.4562C35.7161 33.6921 35.7161 33.6921 35.4644 34.0188C35.3754 34.1232 35.2865 34.2277 35.1948 34.3353C34.9707 34.6654 34.8879 34.866 34.8268 35.2565C34.8886 35.5555 34.8886 35.5555 35.0143 35.8519C35.077 36.0176 35.077 36.0176 35.1409 36.1866C35.1858 36.3005 35.2306 36.4144 35.2769 36.5318C35.3659 36.7578 35.4535 36.9844 35.5394 37.2116C35.5986 37.3614 35.5986 37.3614 35.659 37.5143C35.7414 37.8691 35.7048 38.068 35.5769 38.4071C35.114 38.8535 34.592 39.2235 34.0767 39.6073C33.9865 39.6804 33.8964 39.7535 33.8036 39.8288C33.5797 40.0011 33.5797 40.0011 33.1765 40.2074C32.4431 40.0209 31.9049 39.5306 31.3293 39.0635C31.2325 38.9861 31.1357 38.9088 31.036 38.829C30.7986 38.6392 30.5622 38.4482 30.326 38.2571C30.2012 38.3112 30.0765 38.3654 29.948 38.4212C29.7034 38.5256 29.7034 38.5256 29.4539 38.6321C29.2921 38.7018 29.1302 38.7714 28.9634 38.8431C28.5256 39.0072 28.5256 39.0072 28.0755 39.0072C28.0773 39.118 28.079 39.2288 28.0808 39.343C28.0901 40.3911 28.0404 41.4161 27.9255 42.4578C25.1935 43.4477 25.1935 43.4477 24.3249 43.058C24.1346 42.7467 23.9937 42.4258 23.8472 42.0918C23.3935 40.975 23.3935 40.975 22.5212 40.2155C21.817 40.0647 21.1335 40.1141 20.4241 40.2074C20.3874 40.3331 20.3506 40.4588 20.3128 40.5884C20.0999 41.1742 19.8212 41.6792 19.5052 42.2141C19.4493 42.3102 19.3934 42.4063 19.3358 42.5053C19.1993 42.74 19.0617 42.974 18.9239 43.208C17.7382 43.1304 16.6269 42.8902 15.4732 42.6079C15.3247 40.8255 15.3247 40.8255 15.1732 39.0072C14.9256 38.9577 14.6781 38.9082 14.423 38.8572C14.2497 38.7767 14.0765 38.6963 13.8979 38.6134C13.3263 38.3888 13.1883 38.3717 12.6227 38.5571C12.1932 38.8551 12.1932 38.8551 11.7788 39.2229C11.3664 39.5748 10.9737 39.9065 10.5223 40.2074C10.0772 40.1536 9.77565 39.9881 9.41467 39.7304C9.3232 39.6652 9.23172 39.6 9.13747 39.5329C9.04368 39.4646 8.94988 39.3964 8.85324 39.326C8.75828 39.2589 8.66333 39.1918 8.56549 39.1227C8.12949 38.8088 7.82241 38.558 7.52175 38.107C7.58409 37.7667 7.58409 37.7667 7.72217 37.3739C7.77052 37.2332 7.81887 37.0925 7.86868 36.9475C7.94759 36.7278 7.94759 36.7278 8.02809 36.5036C8.07953 36.3554 8.13098 36.2071 8.18398 36.0544C8.31151 35.6878 8.44088 35.3219 8.57194 34.9565C8.49961 34.8859 8.42728 34.8153 8.35276 34.7426C8.25799 34.6491 8.16323 34.5557 8.0656 34.4595C7.97161 34.3672 7.87762 34.275 7.78078 34.1799C7.52175 33.9063 7.52175 33.9063 7.22169 33.4562C6.0563 33.5751 4.91682 33.8191 3.77105 34.0563C2.07645 31.7334 2.07645 31.7334 2.1565 31.0511C2.28435 30.7206 2.42755 30.5394 2.67397 30.2863C2.75404 30.2022 2.83411 30.1182 2.9166 30.0316C3.00053 29.9457 3.08446 29.8597 3.17094 29.7711C3.33724 29.5996 3.50293 29.4276 3.66791 29.2548C3.74159 29.1793 3.81528 29.1038 3.89119 29.0259C4.10608 28.7891 4.10608 28.7891 4.22114 28.3552C4.10714 27.8708 4.10714 27.8708 3.93046 27.3519C3.82834 27.0394 3.72623 26.7269 3.62102 26.4049C2.53182 26.2068 1.44262 26.0088 0.320415 25.8048C0.104992 24.8354 -0.015504 24.1945 0.00160602 23.2449C0.00431355 23.0482 0.00702108 22.8516 0.00981066 22.6489C0.0132918 22.5021 0.0167729 22.3553 0.0203595 22.2041C0.488828 22.0032 0.957796 21.8035 1.42687 21.604C1.56031 21.5467 1.69375 21.4895 1.83124 21.4305C2.0227 21.3493 2.0227 21.3493 2.21803 21.2664C2.33588 21.2161 2.45373 21.1659 2.57515 21.1141C2.87089 21.0039 2.87089 21.0039 3.17094 21.0039C3.336 20.201 3.48259 19.3852 3.17094 18.6034C2.44049 17.8031 1.42486 17.2927 0.470443 16.8031C0.743465 15.6179 1.0858 14.4879 1.52064 13.3525C1.61967 13.3619 1.7187 13.3713 1.82073 13.381C3.57977 13.5953 3.57977 13.5953 5.25228 13.2024C5.76231 12.7422 5.94804 12.2192 6.02147 11.5521C5.84936 10.9022 5.52356 10.4341 5.1213 9.90183C4.96881 9.6816 4.81847 9.45985 4.67122 9.23608C4.60624 9.14654 4.54126 9.057 4.47431 8.96474C4.37116 8.70161 4.37116 8.70161 4.46083 8.42031C4.72924 8.01357 5.02603 7.64224 5.33697 7.26697C5.51305 7.05317 5.51305 7.05317 5.6927 6.83505C5.80119 6.70838 5.90969 6.5817 6.02147 6.45119C6.09438 6.35701 6.16729 6.26283 6.24241 6.16579C6.47155 6.00111 6.47155 6.00111 6.80443 6.014C7.44869 6.22574 8.04236 6.53699 8.64285 6.84853C9.06937 7.05878 9.3909 7.20527 9.8712 7.18199C10.5836 6.91677 11.1427 6.64973 11.5725 6.00111C11.5983 5.26741 11.4749 4.60956 11.3223 3.89545C11.2457 3.44266 11.2575 3.00874 11.2724 2.55047C11.6811 2.34863 12.0906 2.14893 12.5008 1.95036C12.6162 1.89312 12.7315 1.83587 12.8504 1.77689C14.0528 1.19888 14.0528 1.19888 14.573 1.35025C14.9254 1.66064 15.2105 2.01426 15.5013 2.38169C15.6597 2.57512 15.8182 2.76852 15.9766 2.96188C16.0457 3.0483 16.1148 3.13472 16.186 3.22376C16.3837 3.47048 16.3837 3.47048 16.6734 3.75069C17.1805 3.68654 17.1805 3.68654 17.7424 3.5444C18.2529 3.42373 18.2529 3.42373 18.7738 3.30061C19.1204 2.21141 19.467 1.12221 19.824 0Z" fill="#3D3936"/>
<path d="M20.5741 8.55157C21.3167 8.55157 22.0593 8.55157 22.8245 8.55157C22.8245 8.89814 22.8245 9.2447 22.8245 9.60177C24.1117 9.60177 25.399 9.60177 26.7252 9.60177C26.7252 11.7307 26.7252 13.8596 26.7252 16.053C25.438 16.053 24.1507 16.053 22.8245 16.053C22.8245 22.2416 22.8245 28.4302 22.8245 34.8064C22.0323 34.8064 21.2402 34.8064 20.424 34.8064C20.424 28.5683 20.424 22.3301 20.424 15.9029C19.1863 15.9029 17.9486 15.9029 16.6733 15.9029C16.6733 13.8235 16.6733 11.7442 16.6733 9.60177C17.9606 9.60177 19.2478 9.60177 20.5741 9.60177C20.5741 9.2552 20.5741 8.90864 20.5741 8.55157Z" fill="white"/>
<path d="M29.2756 8.40161C30.0677 8.40161 30.8599 8.40161 31.676 8.40161C31.676 14.4912 31.676 20.5809 31.676 26.855C32.9138 26.855 34.1515 26.855 35.4267 26.855C35.4267 28.9344 35.4267 31.0138 35.4267 33.1562C34.189 33.1562 32.9513 33.1562 31.676 33.1562C31.676 33.7008 31.676 34.2454 31.676 34.8065C30.9334 34.8065 30.1908 34.8065 29.4256 34.8065C29.3761 34.3114 29.3266 33.8163 29.2756 33.3062C28.0379 33.2567 26.8001 33.2072 25.5249 33.1562C25.5249 31.0768 25.5249 28.9974 25.5249 26.855C26.7626 26.855 28.0004 26.855 29.2756 26.855C29.2756 20.7654 29.2756 14.6758 29.2756 8.40161Z" fill="white"/>
<path d="M11.5722 8.55157C12.3149 8.55157 13.0575 8.55157 13.8226 8.55157C13.8226 13.8986 13.8226 19.2456 13.8226 24.7546C15.1099 24.7546 16.3971 24.7546 17.7234 24.7546C17.7234 26.8835 17.7234 29.0124 17.7234 31.2058C16.4361 31.2058 15.1489 31.2058 13.8226 31.2058C13.8226 32.394 13.8226 33.5822 13.8226 34.8064C13.08 34.8064 12.3374 34.8064 11.5722 34.8064C11.5722 33.6182 11.5722 32.43 11.5722 31.2058C10.3345 31.2058 9.09677 31.2058 7.82153 31.2058C7.82153 29.0769 7.82153 26.948 7.82153 24.7546C9.05926 24.7546 10.297 24.7546 11.5722 24.7546C11.5722 19.4076 11.5722 14.0606 11.5722 8.55157Z" fill="white"/>
<path d="M9.32202 26.4048C11.5499 26.4048 13.7778 26.4048 16.0733 26.4048C16.0733 27.4445 16.0733 28.4842 16.0733 29.5554C13.8454 29.5554 11.6174 29.5554 9.32202 29.5554C9.32202 28.5157 9.32202 27.476 9.32202 26.4048Z" fill="#3D3936"/>
<path d="M27.1755 28.5052C29.3539 28.5052 31.5323 28.5052 33.7768 28.5052C33.7768 29.4954 33.7768 30.4856 33.7768 31.5058C31.5984 31.5058 29.42 31.5058 27.1755 31.5058C27.1755 30.5156 27.1755 29.5254 27.1755 28.5052Z" fill="#3D3936"/>
<path d="M18.3237 11.2521C20.5021 11.2521 22.6805 11.2521 24.925 11.2521C24.925 12.2423 24.925 13.2325 24.925 14.2527C22.7465 14.2527 20.5681 14.2527 18.3237 14.2527C18.3237 13.2625 18.3237 12.2723 18.3237 11.2521Z" fill="#3D3936"/>
</svg>
