<svg width="44" height="44" viewBox="0 0 44 44" fill="none" xmlns="http://www.w3.org/2000/svg">
<path d="M27.9259 2.83817C28.727 3.30832 29.5319 3.7718 30.3367 4.23531C30.5779 4.37433 30.5779 4.37433 30.8238 4.51616C31.6502 4.99256 32.4769 5.46823 33.3041 5.94327C34.1143 6.40877 34.9231 6.87643 35.7313 7.34545C36.173 7.60094 36.6161 7.85392 37.0594 8.10684C37.3264 8.26169 37.5933 8.41667 37.8602 8.5718C38.0386 8.67219 38.0386 8.67219 38.2205 8.7746C39.2068 9.35432 39.9983 10.0487 40.4397 11.1232C40.4674 11.2466 40.4952 11.37 40.5238 11.4971C40.6697 11.4539 40.8156 11.4107 40.9659 11.3662C41.1581 11.3101 41.3503 11.254 41.5425 11.198C41.7316 11.1425 41.9207 11.087 42.1155 11.0298C42.6172 10.8989 42.6172 10.8989 43.0658 10.8989C43.0693 12.7006 43.072 14.5024 43.0736 16.3041C43.0744 17.1408 43.0754 17.9776 43.0771 18.8143C43.0788 19.6229 43.0797 20.4315 43.08 21.2402C43.0803 21.5475 43.0808 21.8549 43.0817 22.1623C43.0895 25.2529 43.0895 25.2529 42.9163 26.7496C42.6269 26.8501 42.3371 26.9496 42.0471 27.0486C41.8858 27.1041 41.7245 27.1597 41.5582 27.2169C41.1219 27.3477 41.1219 27.3477 40.6733 27.3477C40.6772 27.4531 40.6811 27.5585 40.6852 27.6671C40.7009 28.1525 40.7105 28.6379 40.72 29.1234C40.7263 29.2892 40.7326 29.455 40.739 29.6258C40.759 30.984 40.4516 31.9386 39.5892 32.9926C38.4979 33.8855 37.2691 34.5576 36.0377 35.2356C34.9628 35.8325 33.8895 36.4304 32.8321 37.0581C31.6256 37.7739 30.4115 38.476 29.1954 39.1754C28.418 39.6225 27.6411 40.0704 26.8675 40.5242C26.6047 40.6783 26.3416 40.832 26.0785 40.9856C25.7493 41.1779 25.4205 41.371 25.0923 41.5649C22.3771 43.1467 22.3771 43.1467 20.7853 42.8993C19.6862 42.5568 18.6928 41.9963 17.7011 41.4226C17.5527 41.3378 17.4044 41.2529 17.2515 41.1655C15.8907 40.3855 14.5366 39.594 13.183 38.8017C12.2363 38.248 11.2867 37.6993 10.3366 37.1515C10.1771 37.0595 10.0177 36.9675 9.85341 36.8728C9.09322 36.4344 8.3326 35.9967 7.57079 35.5611C7.30342 35.4082 7.03618 35.2551 6.76898 35.1018C6.43381 34.9097 6.0984 34.718 5.76269 34.5268C3.45456 33.2023 3.45456 33.2023 2.93461 32.273C2.86252 32.1479 2.79042 32.0228 2.71615 31.8939C2.4369 31.3176 2.37406 30.8289 2.37794 30.1912C2.37843 30.0514 2.37891 29.9117 2.3794 29.7677C2.38066 29.6229 2.38191 29.4782 2.3832 29.329C2.38388 29.1819 2.38455 29.0349 2.38525 28.8833C2.387 28.521 2.38969 28.1586 2.39255 27.7963C1.60301 27.5989 0.813466 27.4015 0 27.1982C0 21.7207 0 16.2433 0 10.5999C0.838887 10.7972 1.67777 10.9946 2.54208 11.198C2.64386 11.0191 2.74563 10.8402 2.8505 10.6559C3.56713 9.3964 4.88186 8.75299 6.10286 8.06712C6.36356 7.91874 6.62425 7.77036 6.88488 7.62188C7.15394 7.46877 7.42326 7.31614 7.69261 7.16357C8.52068 6.69395 9.34424 6.21654 10.1683 5.74C10.4923 5.55304 10.8163 5.36613 11.1403 5.17924C11.3007 5.08672 11.461 4.9942 11.6263 4.89887C12.1123 4.61849 12.5983 4.33811 13.0842 4.05774C13.2448 3.96506 13.4054 3.87238 13.5708 3.77689C13.8926 3.59132 14.2146 3.40598 14.5366 3.22088C15.2917 2.78652 16.0453 2.35005 16.7942 1.90506C17.0591 1.74781 17.3244 1.59132 17.5898 1.43505C17.9225 1.2389 18.2543 1.04136 18.5852 0.842168C22.1429 -1.24663 24.7785 0.983655 27.9259 2.83817Z" fill="white"/>
<path d="M19.1404 11.9457C18.9377 12.4103 18.7198 12.6747 18.3366 13.0018C17.2457 14.0689 17.0729 15.6828 16.8693 17.1327C16.8334 17.3874 16.8334 17.3874 16.7968 17.6472C16.7504 17.9845 16.7051 18.3219 16.661 18.6596C16.6062 19.065 16.5423 19.4675 16.475 19.871C16.3928 20.4365 16.3486 20.9476 16.4488 21.5159C16.8638 22.0547 17.3254 22.2993 17.9441 22.5626C18.0534 22.6155 18.1627 22.6683 18.2753 22.7227C19.3556 23.1693 20.6345 23.1856 21.7479 22.8617C22.9853 21.8959 23.4898 20.5244 23.7082 19.0019C23.7517 18.636 23.7903 18.2695 23.8227 17.9025C23.9255 17.4785 23.9255 17.4785 24.1895 17.2829C24.5236 17.1794 24.5236 17.1794 24.8408 17.2859C24.9551 17.3537 25.0694 17.4215 25.1872 17.4913C25.3189 17.5677 25.4507 17.6441 25.5864 17.7228C25.7292 17.8087 25.8719 17.8946 26.019 17.9831C26.3287 18.1643 26.6385 18.3454 26.9483 18.5264C27.1125 18.6234 27.2767 18.7204 27.4459 18.8203C27.9764 19.1326 28.5115 19.4365 29.0476 19.739C34.2545 22.6798 34.2545 22.6798 34.6919 23.3103C34.6682 23.9407 34.4014 24.3004 34.0097 24.7776C33.9139 24.8958 33.8181 25.0139 33.7194 25.1357C33.6456 25.2242 33.5717 25.3126 33.4957 25.4038C32.2504 25.0289 31.1503 24.4658 30.0032 23.86C29.8623 23.7873 29.7214 23.7146 29.5762 23.6397C29.4493 23.5729 29.3224 23.5061 29.1917 23.4372C28.8426 23.2634 28.8426 23.2634 28.4115 23.4598C29.1252 24.0767 29.9254 24.5423 30.7293 25.0299C32.4104 26.0497 32.4104 26.0497 33.0471 26.6001C32.9575 27.5408 32.5865 28.0923 31.9442 28.7683C31.5517 28.9926 31.5517 28.9926 31.1738 28.9085C30.4627 28.6141 29.8019 28.2471 29.1311 27.8711C28.9963 27.7965 28.8615 27.7219 28.7225 27.645C28.2084 27.3595 27.7048 27.076 27.2152 26.7496C27.0672 26.7496 26.9191 26.7496 26.7666 26.7496C26.7173 26.8483 26.6679 26.947 26.6171 27.0487C26.7269 27.0901 26.8367 27.1315 26.9499 27.1741C27.5954 27.4442 28.1614 27.8197 28.7479 28.1982C28.8717 28.2737 28.9955 28.3491 29.123 28.4269C30.0083 29.0009 30.0083 29.0009 30.2392 29.6795C30.203 30.234 30.1146 30.4683 29.7853 30.9085C29.7042 31.0205 29.623 31.1325 29.5394 31.2479C29.3087 31.5347 29.3087 31.5347 29.0096 31.8338C28.1808 31.8013 27.5409 31.4213 26.832 31.03C26.7211 30.9703 26.6102 30.9105 26.4959 30.8489C25.9298 30.5424 25.3714 30.2267 24.8227 29.8898C24.8227 29.9885 24.8227 30.0872 24.8227 30.1889C24.4433 30.0519 24.1268 29.9324 23.8133 29.6749C23.4643 29.4325 23.2298 29.3744 22.8227 29.273C22.0639 29.0412 21.8417 28.6301 21.4511 27.9692C20.9655 27.2487 20.1714 26.9831 19.3437 26.7922C18.9033 26.739 18.4807 26.7605 18.0376 26.7776C17.3336 26.793 16.9079 26.7297 16.2992 26.3758C15.453 25.8888 14.5634 25.8141 13.6076 26.0019C13.2527 26.2871 13.2527 26.2871 13.0095 26.6001C12.9324 26.56 12.8553 26.5199 12.7758 26.4786C12.6555 26.42 12.5353 26.3614 12.4113 26.301C12.254 26.2208 12.0968 26.1406 11.9347 26.058C11.2925 25.7937 10.703 25.7105 10.0188 25.8524C9.32948 26.1892 8.79555 26.6056 8.29915 27.1888C7.92531 27.4973 7.92531 27.4973 7.64963 27.5101C6.73922 27.3947 5.88576 27.1752 5.00881 26.9079C4.81683 26.8508 4.81683 26.8508 4.62098 26.7925C4.14882 26.6518 3.67726 26.509 3.20564 26.3664C2.14778 26.0487 1.08992 25.7311 0 25.4038C0 21.1107 0 16.8175 0 12.3943C1.51307 12.7726 3.00244 13.1601 4.49187 13.6122C4.77755 13.6976 5.06324 13.7831 5.34897 13.8684C6.04097 14.0751 6.73269 14.2828 7.42377 14.4926C7.81638 14.6117 8.20926 14.7298 8.6025 14.8468C8.96977 14.956 9.3366 15.0668 9.70292 15.1792C9.86877 15.2282 10.0346 15.2772 10.2055 15.3276C10.3504 15.3713 10.4952 15.415 10.6445 15.46C11.5438 15.6192 12.1504 15.3192 12.9032 14.8511C12.9906 14.7974 13.078 14.7436 13.168 14.6883C13.4463 14.5169 13.7232 14.3435 14.0001 14.17C14.1825 14.057 14.3649 13.944 14.5475 13.8312C14.6372 13.7758 14.727 13.7203 14.8195 13.6631C15.1761 13.4429 15.5327 13.2228 15.8897 13.0032C16.0624 12.8967 16.235 12.7898 16.4072 12.6825C16.6495 12.5321 16.8931 12.384 17.1369 12.236C17.2758 12.1507 17.4147 12.0654 17.5578 11.9776C18.1518 11.6986 18.5207 11.767 19.1404 11.9457Z" fill="#3D3936"/>
<path d="M27.9259 2.83817C28.7269 3.30832 29.5318 3.7718 30.3367 4.23531C30.5778 4.37433 30.5778 4.37433 30.8237 4.51616C31.6501 4.99256 32.4769 5.46822 33.304 5.94327C34.1142 6.40877 34.9231 6.87643 35.7312 7.34545C36.173 7.60094 36.6161 7.85392 37.0593 8.10684C37.3263 8.26169 37.5932 8.41667 37.8601 8.5718C38.0385 8.67219 38.0385 8.67219 38.2204 8.7746C39.205 9.35334 40.0763 10.1217 40.5237 11.198C40.5237 11.346 40.5237 11.4941 40.5237 11.6466C38.7999 12.1626 37.0713 12.6332 35.318 13.0391C35.1551 13.0771 34.9921 13.1151 34.8242 13.1543C34.5169 13.2242 34.209 13.2913 33.9004 13.355C33.5089 13.4321 33.5089 13.4321 33.1866 13.5349C32.1996 13.7823 31.4092 13.2057 30.5736 12.7283C30.2956 12.5697 30.0154 12.4156 29.7345 12.2622C28.9232 11.817 28.1217 11.3603 27.3396 10.865C25.893 9.96082 24.6288 9.50823 22.9 9.77143C22.0699 9.98062 21.4164 10.484 20.7852 11.0485C20.6975 11.0041 20.6098 10.9598 20.5194 10.9141C19.4592 10.3887 18.5321 10.0783 17.3459 10.3008C16.4858 10.6521 15.7076 11.1797 14.9253 11.6746C14.7126 11.8055 14.4997 11.9361 14.2866 12.0663C13.5752 12.5027 12.8646 12.9399 12.1695 13.4021C11.6409 13.7524 11.35 13.9373 10.7196 13.8429C10.4341 13.766 10.1508 13.6805 9.86917 13.5905C9.67232 13.5286 9.47548 13.4667 9.27863 13.4048C8.93225 13.2952 8.5862 13.1848 8.24072 13.0724C6.98357 12.6672 5.70932 12.3311 4.43103 11.9996C4.19249 11.937 4.19249 11.937 3.94913 11.8732C3.73663 11.8184 3.73663 11.8184 3.51984 11.7624C3.16787 11.6551 2.86442 11.5232 2.54199 11.3475C3.2517 9.66197 4.55899 8.92488 6.11212 8.05778C6.37181 7.91041 6.63151 7.76304 6.89112 7.61555C7.15883 7.46367 7.42686 7.31237 7.69494 7.16116C8.52282 6.69344 9.3452 6.21617 10.1682 5.74C10.4922 5.55304 10.8162 5.36612 11.1402 5.17924C11.3006 5.08672 11.461 4.9942 11.6262 4.89887C12.1122 4.61849 12.5982 4.33811 13.0842 4.05774C13.2447 3.96506 13.4053 3.87238 13.5708 3.77689C13.8925 3.59132 14.2145 3.40598 14.5365 3.22088C15.2916 2.78652 16.0452 2.35005 16.7941 1.90506C17.059 1.74781 17.3243 1.59132 17.5897 1.43505C17.9224 1.2389 18.2542 1.04136 18.5851 0.842168C22.1428 -1.24663 24.7784 0.983654 27.9259 2.83817Z" fill="#3D3936"/>
<path d="M40.6732 27.3477C40.6952 27.9396 40.7083 28.5313 40.7199 29.1234C40.7262 29.2892 40.7325 29.455 40.7389 29.6258C40.7589 30.984 40.4515 31.9386 39.5891 32.9926C38.4978 33.8855 37.269 34.5577 36.0377 35.2356C34.9627 35.8326 33.8894 36.4304 32.832 37.0581C31.6256 37.7739 30.4114 38.4761 29.1953 39.1754C28.4179 39.6225 27.641 40.0705 26.8674 40.5242C26.6046 40.6783 26.3415 40.832 26.0784 40.9856C25.7492 41.1779 25.4204 41.371 25.0922 41.565C22.377 43.1468 22.377 43.1468 20.7852 42.8993C19.6862 42.5569 18.6927 41.9963 17.701 41.4226C17.5527 41.3378 17.4043 41.2529 17.2514 41.1655C15.8907 40.3855 14.5365 39.594 13.1829 38.8017C12.2362 38.248 11.2866 37.6993 10.3365 37.1516C10.0973 37.0136 10.0973 37.0136 9.85332 36.8728C9.09313 36.4344 8.33251 35.9967 7.5707 35.5612C7.30333 35.4082 7.03609 35.2551 6.76889 35.1018C6.43372 34.9097 6.0983 34.718 5.7626 34.5269C3.45447 33.2023 3.45447 33.2023 2.93452 32.273C2.86242 32.1479 2.79033 32.0228 2.71606 31.8939C2.43681 31.3176 2.37396 30.8289 2.37785 30.1912C2.37833 30.0515 2.37882 29.9117 2.37931 29.7677C2.38057 29.623 2.38182 29.4782 2.38311 29.329C2.38378 29.182 2.38446 29.0349 2.38515 28.8834C2.38691 28.521 2.38937 28.1587 2.39245 27.7963C2.9675 27.9367 3.54174 28.0794 4.11502 28.2268C4.53985 28.3356 4.96445 28.4331 5.39424 28.52C6.7697 28.8319 6.7697 28.8319 7.08175 29.2928C7.1869 29.6375 7.1869 29.6375 7.25699 29.9938C7.40481 30.7206 7.82861 31.1981 8.40829 31.6386C9.0131 32.0269 9.53902 32.3045 10.2523 32.4132C11.0049 32.5397 11.372 32.9676 11.9042 33.4868C12.2982 33.8074 12.6193 33.9301 13.1028 34.0768C13.8807 34.3192 14.1844 34.647 14.673 35.2789C15.3177 35.9531 16.2933 36.2061 17.1496 36.5254C17.6065 36.7495 17.8664 36.9514 18.2337 37.2917C19.246 38.2037 20.2668 38.4103 21.6298 38.384C22.2581 38.2332 22.4418 38.0308 22.8226 37.516C22.9997 37.2222 23.1685 36.9231 23.3272 36.6188C23.3947 36.4949 23.4622 36.371 23.5317 36.2433C23.6718 35.9741 23.8002 35.699 23.9254 35.4226C24.0613 35.4356 24.0613 35.4356 24.1999 35.4488C25.2684 35.5064 26.0305 35.2789 26.9161 34.6749C27.3419 34.276 27.6397 33.8138 27.9628 33.3291C28.3203 33.2736 28.3203 33.2736 28.7479 33.2637C29.5105 33.2071 29.9338 33.1265 30.5049 32.5814C30.8818 32.0487 31.2192 31.4978 31.5516 30.9365C31.9096 30.3996 32.1751 30.3257 32.7479 30.0393C32.9221 29.8974 33.0947 29.7536 33.266 29.6083C34.0209 29.0353 34.8205 28.8359 35.7292 28.6094C36.0613 28.522 36.3932 28.4343 36.7252 28.3466C36.9684 28.2835 36.9684 28.2835 37.2165 28.2191C37.9736 28.0181 38.7223 27.7904 39.4711 27.5603C39.8903 27.4341 40.2322 27.3477 40.6732 27.3477Z" fill="#3D3936"/>
<path d="M25.3256 11.6835C25.8502 11.9405 26.3559 12.2215 26.8601 12.5157C27.0432 12.6182 27.2264 12.7202 27.4099 12.8218C28.2402 13.2847 29.0585 13.7665 29.8706 14.2605C29.9983 14.3374 30.126 14.4142 30.2576 14.4934C30.4898 14.6346 30.7202 14.7789 30.9481 14.9269C31.0509 14.9901 31.1538 15.0534 31.2597 15.1186C31.3458 15.174 31.4319 15.2294 31.5206 15.2865C32.595 15.6068 33.9464 15.0048 34.9758 14.7079C35.257 14.6282 35.5381 14.5484 35.8192 14.4687C36.2107 14.3575 36.602 14.2455 36.9932 14.1335C37.6765 13.9378 38.36 13.7428 39.0438 13.5487C39.4068 13.4456 39.7696 13.342 40.1323 13.2377C40.3823 13.1666 40.3823 13.1666 40.6373 13.0941C40.7818 13.0527 40.9263 13.0113 41.0752 12.9686C41.7328 12.8016 42.4005 12.6768 43.0659 12.5438C43.0659 16.6395 43.0659 20.7353 43.0659 24.9551C41.7829 25.3005 40.4999 25.646 39.178 26.0019C38.4319 26.2196 37.6874 26.4383 36.9443 26.6654C36.6067 26.7686 36.2689 26.8712 35.9309 26.9732C35.7888 27.0167 35.6468 27.0602 35.5004 27.1049C35.1406 27.1981 35.1406 27.1981 34.692 27.1981C34.6452 26.8617 34.6452 26.8617 34.692 26.4505C34.9377 26.2468 35.1877 26.0483 35.4396 25.8523C36.1698 24.8571 36.5238 23.9581 36.3368 22.7121C35.528 20.8931 32.9711 20.111 31.3043 19.2832C30.8935 19.0792 30.4832 18.8742 30.073 18.6691C29.8029 18.5345 29.5328 18.3998 29.2626 18.2652C29.1301 18.199 28.9976 18.1328 28.8611 18.0645C28.1943 17.7333 27.525 17.413 26.8448 17.1102C26.7144 17.0514 26.584 16.9925 26.4496 16.9319C26.2036 16.8216 25.9565 16.7137 25.7083 16.6086C25.1319 16.3491 24.8719 16.209 24.5205 15.6634C24.3741 15.2354 24.3741 15.2354 24.3741 14.9363C24.2754 14.9363 24.1767 14.9363 24.075 14.9363C24.0966 15.0689 24.1182 15.2016 24.1404 15.3382C24.069 15.879 24.0403 15.9353 23.6358 16.2541C23.0166 16.65 22.4052 16.7127 21.6825 16.7307C21.7798 16.7911 21.8772 16.8514 21.9775 16.9136C22.2806 17.1793 22.2806 17.1793 22.3548 17.4872C22.3183 18.9676 22.0113 20.3931 21.2339 21.6654C20.6736 22.0113 20.2453 22.0182 19.589 21.9644C18.9283 21.794 18.364 21.5964 17.7946 21.2168C17.7184 19.9333 17.9593 18.5968 18.1497 17.3289C18.1667 17.2128 18.1837 17.0968 18.2012 16.9773C18.3904 15.8041 18.6621 14.8424 19.589 14.0391C19.6684 13.9647 19.7478 13.8903 19.8297 13.8137C20.1399 13.5286 20.4601 13.2603 20.7853 12.9924C20.8604 12.9287 20.9354 12.865 21.0128 12.7993C21.2663 12.5872 21.5249 12.383 21.7853 12.1793C21.9035 12.0785 21.9035 12.0785 22.0242 11.9756C23.0037 11.2346 24.2062 11.2685 25.3256 11.6835Z" fill="#3D3936"/>
<path d="M18.4395 28.1328C19.1421 28.1974 19.7628 28.4315 20.3367 28.843C20.6357 29.2916 20.6357 29.2916 20.627 29.6731C20.4265 30.4074 20.0868 31.0427 19.7292 31.7122C19.6557 31.8514 19.5822 31.9906 19.5065 32.1341C18.9621 33.147 18.3742 34.0818 17.6451 34.9739C16.8223 34.7326 16.0585 34.5016 15.402 33.9272C15.1991 33.2223 15.2719 32.8435 15.6041 32.1994C15.6822 32.0458 15.7603 31.8921 15.8407 31.7338C15.9242 31.5756 16.0076 31.4173 16.0936 31.2543C16.1736 31.0972 16.2536 30.9401 16.336 30.7782C16.5671 30.3291 16.8046 29.8843 17.0469 29.4412C17.1142 29.3171 17.1814 29.1931 17.2507 29.0653C17.3132 28.9569 17.3757 28.8484 17.44 28.7367C17.4933 28.6434 17.5466 28.55 17.6016 28.4538C17.8633 28.1706 18.0616 28.1601 18.4395 28.1328Z" fill="#3D3936"/>
<path d="M21.3835 30.4879C22.0879 30.5051 22.6855 30.5323 23.2526 30.9832C23.7296 31.4959 23.7296 31.4959 23.776 31.9833C23.6515 32.3801 23.6515 32.3801 23.4518 32.8279C23.3798 32.9906 23.3078 33.1533 23.2337 33.3209C23.1182 33.5748 23.1182 33.5748 23.0003 33.8337C22.8891 34.0859 22.8891 34.0859 22.7757 34.3431C22.0023 36.0718 22.0023 36.0718 21.533 36.6188C20.9109 36.8251 20.2803 36.7162 19.6796 36.4751C18.8909 36.0289 18.8909 36.0289 18.7334 35.5267C18.6835 35.0425 18.7729 34.8422 19.0003 34.4161C19.0697 34.2843 19.1391 34.1525 19.2107 34.0167C19.2862 33.8792 19.3617 33.7417 19.4395 33.6001C19.5148 33.4598 19.59 33.3196 19.6675 33.175C20.1801 32.2327 20.7174 31.3313 21.3835 30.4879Z" fill="#3D3936"/>
<path d="M14.2058 27.4972C15.291 27.5454 15.9471 27.7589 16.7479 28.5346C16.8974 28.843 16.8974 28.843 16.7817 29.1882C16.1711 30.5282 15.3961 31.7109 14.5049 32.8804C13.9786 32.8063 13.5281 32.7367 13.0656 32.4692C12.9835 32.4237 12.9014 32.3782 12.8167 32.3314C12.4695 32.0618 12.2273 31.734 11.9628 31.3851C12.6144 30.0086 13.3261 28.7448 14.2058 27.4972Z" fill="#3D3936"/>
<path d="M11.1934 27.3769C11.8116 27.6089 12.2587 28.116 12.5608 28.6935C12.5267 29.6173 11.8591 30.3281 11.215 30.9365C10.5412 31.0992 10.2932 31.0051 9.69164 30.6748C9.55285 30.5638 9.41406 30.4528 9.27107 30.3384C9.15079 30.2459 9.03051 30.1533 8.90658 30.058C8.67294 29.7403 8.67294 29.7403 8.6449 29.329C9.04516 28.2336 9.95588 27.1886 11.1934 27.3769Z" fill="#3D3936"/>
<path d="M24.8226 30.4879C25.4991 30.7068 25.9756 31.0199 26.4675 31.5347C26.5599 32.1093 26.5233 32.4482 26.2993 32.9833C25.9535 33.4097 25.599 33.6587 25.1217 33.9272C24.9737 33.9272 24.8256 33.9272 24.6731 33.9272C24.7055 33.8314 24.7379 33.7356 24.7712 33.6369C25.1386 32.4955 25.2703 31.6352 24.8226 30.4879Z" fill="#3D3936"/>
</svg>
